<mxfile host="app.diagrams.net" agent="Mozilla/5.0 (Windows NT 10.0; Win64; x64) AppleWebKit/537.36 (KHTML, like Gecko) Chrome/131.0.0.0 Safari/537.36" version="26.0.6">
  <diagram name="PÃ¡gina-1" id="QQ8ie0BxFa6PHiXjb-1F">
    <mxGraphModel dx="1050" dy="557" grid="1" gridSize="10" guides="1" tooltips="1" connect="1" arrows="1" fold="1" page="1" pageScale="1" pageWidth="827" pageHeight="1169" math="0" shadow="0">
      <root>
        <mxCell id="0" />
        <mxCell id="1" parent="0" />
        <mxCell id="Rua2nG8XP49n4u_9Wn-c-15" style="edgeStyle=orthogonalEdgeStyle;rounded=0;orthogonalLoop=1;jettySize=auto;html=1;exitX=0.5;exitY=1;exitDx=0;exitDy=0;" edge="1" parent="1" source="Rua2nG8XP49n4u_9Wn-c-2" target="Rua2nG8XP49n4u_9Wn-c-6">
          <mxGeometry relative="1" as="geometry" />
        </mxCell>
        <mxCell id="Rua2nG8XP49n4u_9Wn-c-2" value="&lt;font style=&quot;font-size: 14px;&quot; face=&quot;Comic Sans MS&quot;&gt;&lt;b style=&quot;&quot;&gt;Flujo de trabajo&lt;/b&gt;&lt;/font&gt;&lt;div&gt;&lt;font style=&quot;font-size: 14px;&quot; face=&quot;Comic Sans MS&quot;&gt;&lt;b style=&quot;&quot;&gt;digital&lt;/b&gt;&lt;/font&gt;&lt;/div&gt;" style="rounded=1;whiteSpace=wrap;html=1;labelBackgroundColor=none;arcSize=50;fillColor=#f5f5f5;fontColor=#333333;strokeColor=#666666;" vertex="1" parent="1">
          <mxGeometry x="370" y="50" width="130" height="60" as="geometry" />
        </mxCell>
        <mxCell id="Rua2nG8XP49n4u_9Wn-c-5" style="edgeStyle=orthogonalEdgeStyle;rounded=0;orthogonalLoop=1;jettySize=auto;html=1;entryX=0.5;entryY=0;entryDx=0;entryDy=0;" edge="1" parent="1" target="Rua2nG8XP49n4u_9Wn-c-4">
          <mxGeometry relative="1" as="geometry">
            <mxPoint x="370" y="80" as="sourcePoint" />
          </mxGeometry>
        </mxCell>
        <mxCell id="Rua2nG8XP49n4u_9Wn-c-16" style="edgeStyle=orthogonalEdgeStyle;rounded=0;orthogonalLoop=1;jettySize=auto;html=1;entryX=0.5;entryY=0;entryDx=0;entryDy=0;" edge="1" parent="1" target="Rua2nG8XP49n4u_9Wn-c-9">
          <mxGeometry relative="1" as="geometry">
            <mxPoint x="500" y="75" as="sourcePoint" />
          </mxGeometry>
        </mxCell>
        <mxCell id="Rua2nG8XP49n4u_9Wn-c-4" value="&lt;font&gt;&lt;b&gt;notion&amp;nbsp;&lt;/b&gt;&lt;/font&gt;" style="rounded=0;whiteSpace=wrap;html=1;fontFamily=Comic Sans MS;fontSize=14;labelBackgroundColor=none;fillColor=#ffe6cc;strokeColor=#d79b00;" vertex="1" parent="1">
          <mxGeometry x="210" y="170" width="120" height="60" as="geometry" />
        </mxCell>
        <mxCell id="Rua2nG8XP49n4u_9Wn-c-6" value="&lt;b&gt;zapier&lt;/b&gt;" style="rhombus;whiteSpace=wrap;html=1;fontSize=14;fontFamily=Comic Sans MS;rounded=0;labelBackgroundColor=none;fillColor=#f8cecc;strokeColor=#b85450;" vertex="1" parent="1">
          <mxGeometry x="400" y="180" width="80" height="80" as="geometry" />
        </mxCell>
        <mxCell id="Rua2nG8XP49n4u_9Wn-c-9" value="&lt;b&gt;google sheets&lt;/b&gt;" style="shape=parallelogram;perimeter=parallelogramPerimeter;whiteSpace=wrap;html=1;fixedSize=1;fontSize=14;fontFamily=Comic Sans MS;rounded=0;labelBackgroundColor=none;fillColor=#d5e8d4;strokeColor=#82b366;" vertex="1" parent="1">
          <mxGeometry x="560" y="170" width="120" height="60" as="geometry" />
        </mxCell>
        <mxCell id="Rua2nG8XP49n4u_9Wn-c-20" value="Crea-organiza tareas y proyectos" style="text;html=1;align=center;verticalAlign=middle;whiteSpace=wrap;rounded=0;fontStyle=1;fontFamily=Comic Sans MS;" vertex="1" parent="1">
          <mxGeometry x="200" y="250" width="140" height="30" as="geometry" />
        </mxCell>
        <mxCell id="Rua2nG8XP49n4u_9Wn-c-24" value="Automatiza procesos y conecta herramientas" style="text;html=1;align=center;verticalAlign=middle;whiteSpace=wrap;rounded=0;fontFamily=Comic Sans MS;fontStyle=1" vertex="1" parent="1">
          <mxGeometry x="380" y="270" width="130" height="30" as="geometry" />
        </mxCell>
        <mxCell id="Rua2nG8XP49n4u_9Wn-c-25" value="registra y analiza datos autmaticamente" style="text;html=1;align=center;verticalAlign=middle;whiteSpace=wrap;rounded=0;fontFamily=Comic Sans MS;fontStyle=1" vertex="1" parent="1">
          <mxGeometry x="550" y="250" width="140" height="30" as="geometry" />
        </mxCell>
      </root>
    </mxGraphModel>
  </diagram>
</mxfile>
